<?xml version="1.0" encoding="UTF-8"?>
<svg id="Layer_1" data-name="Layer 1" xmlns="http://www.w3.org/2000/svg" version="1.1" viewBox="0 0 52.72 54.23">
  <defs>
    <style>
      .cls-1 {
        fill: #231f20;
        stroke-width: 0px;
      }
    </style>
  </defs>
  <g>
    <g>
      <rect class="cls-1" x="26.02" y="13.41" width="1.21" height="2.68"/>
      <polygon class="cls-1" points="33.56 18.88 32.71 18.04 34.39 16.35 35.24 17.21 33.56 18.88"/>
      <rect class="cls-1" x="18.59" y="16.43" width="1.21" height="2.38" transform="translate(-6.83 18.81) rotate(-45.18)"/>
    </g>
    <g>
      <rect class="cls-1" x="26.02" y="35.65" width="1.21" height="2.68"/>
      <rect class="cls-1" x="33.37" y="32.9" width="1.21" height="2.38" transform="translate(-14.15 33.86) rotate(-44.82)"/>
      <rect class="cls-1" x="18" y="33.48" width="2.38" height="1.21" transform="translate(-18.48 23.55) rotate(-45)"/>
    </g>
  </g>
  <path class="cls-1" d="M13.25,48.46h26.67c5.11,0,9.26-4.15,9.26-9.26V12.54c0-5.11-4.16-9.26-9.26-9.26H13.25C8.14,3.27,3.99,7.43,3.99,12.54v26.67c0,5.11,4.16,9.26,9.26,9.26ZM13.25,4.26h26.67c4.56,0,8.28,3.71,8.28,8.28v22.23s0,0,0,0v4.43c0,4.56-3.71,8.28-8.28,8.28H13.25c-4.56,0-8.28-3.71-8.28-8.28v-22.23s0,0,0,0v-4.43c0-4.56,3.71-8.28,8.28-8.28Z"/>
  <g>
    <path class="cls-1" d="M18.2,27.35c-.96,0-1.75-.78-1.75-1.75s.78-1.75,1.75-1.75,1.75.78,1.75,1.75-.78,1.75-1.75,1.75ZM18.2,24.66c-.52,0-.94.42-.94.94s.42.94.94.94.94-.42.94-.94-.42-.94-.94-.94Z"/>
    <path class="cls-1" d="M22.75,27.35c-.96,0-1.75-.78-1.75-1.75s.78-1.75,1.75-1.75,1.75.78,1.75,1.75-.78,1.75-1.75,1.75ZM22.75,24.66c-.52,0-.94.42-.94.94s.42.94.94.94.94-.42.94-.94-.42-.94-.94-.94Z"/>
    <path class="cls-1" d="M27.29,27.35c-.96,0-1.75-.78-1.75-1.75s.78-1.75,1.75-1.75,1.75.78,1.75,1.75-.78,1.75-1.75,1.75ZM27.29,24.66c-.52,0-.94.42-.94.94s.42.94.94.94.94-.42.94-.94-.42-.94-.94-.94Z"/>
    <path class="cls-1" d="M31.84,27.35c-.96,0-1.75-.78-1.75-1.75s.78-1.75,1.75-1.75,1.75.78,1.75,1.75-.78,1.75-1.75,1.75ZM31.84,24.66c-.52,0-.94.42-.94.94s.42.94.94.94.94-.42.94-.94-.42-.94-.94-.94Z"/>
    <path class="cls-1" d="M36.38,27.35c-.96,0-1.75-.78-1.75-1.75s.78-1.75,1.75-1.75,1.75.78,1.75,1.75-.78,1.75-1.75,1.75ZM36.38,24.66c-.52,0-.94.42-.94.94s.42.94.94.94.94-.42.94-.94-.42-.94-.94-.94Z"/>
  </g>
  <path class="cls-1" d="M35.95,30.65h-17.32c-2.64,0-4.78-2.14-4.78-4.78s2.14-4.78,4.78-4.78h17.32c2.64,0,4.78,2.14,4.78,4.78s-2.14,4.78-4.78,4.78ZM18.63,22.06c-2.1,0-3.81,1.71-3.81,3.81s1.71,3.81,3.81,3.81h17.32c2.1,0,3.81-1.71,3.81-3.81s-1.71-3.81-3.81-3.81h-17.32Z"/>
</svg>