<?xml version="1.0" encoding="UTF-8"?>
<svg id="Layer_1" data-name="Layer 1" xmlns="http://www.w3.org/2000/svg" version="1.1" viewBox="0 0 53.71 55.24">
  <defs>
    <style>
      .cls-1 {
        fill: #231f20;
        stroke-width: 0px;
      }
    </style>
  </defs>
  <path class="cls-1" d="M40.38,4.22H13.71c-5.11,0-9.26,4.15-9.26,9.26v26.67c0,5.11,4.16,9.26,9.26,9.26h26.67c5.11,0,9.26-4.15,9.26-9.26V13.48c0-5.11-4.16-9.26-9.26-9.26ZM40.38,48.42H13.71c-4.56,0-8.28-3.71-8.28-8.28v-22.23s0,0,0,0v-4.43c0-4.56,3.71-8.28,8.28-8.28h26.67c4.56,0,8.28,3.71,8.28,8.28v22.23s0,0,0,0v4.43c0,4.56-3.71,8.28-8.28,8.28Z"/>
  <path class="cls-1" d="M26.48,19.07v-2.68h1.21v2.68h-1.21ZM34.02,21.86l-.85-.85,1.67-1.68.86.86-1.68,1.67ZM26.48,37.24v-2.68h1.21v2.68h-1.21ZM34.85,34.27l-1.67-1.68.85-.86,1.68,1.68-.86.86ZM20.07,21.86l-1.68-1.67.86-.86,1.68,1.68-.86.85ZM19.24,34.27l-.86-.86,1.68-1.68.86.86-1.68,1.68Z"/>
  <path class="cls-1" d="M35.64,29.04h-17.19c-1.23,0-2.23-1-2.23-2.23s1-2.23,2.23-2.23h17.19c1.23,0,2.23,1,2.23,2.23s-1,2.23-2.23,2.23ZM18.45,25.72c-.6,0-1.1.49-1.1,1.1s.49,1.1,1.1,1.1h17.19c.6,0,1.1-.49,1.1-1.1s-.49-1.1-1.1-1.1h-17.19Z"/>
</svg>