<?xml version="1.0" encoding="UTF-8"?>
<svg id="Layer_1" data-name="Layer 1" xmlns="http://www.w3.org/2000/svg" version="1.1" viewBox="0 0 34.85 32.66">
  <defs>
    <style>
      .cls-1 {
        fill: #000;
        stroke: #000;
        stroke-miterlimit: 10;
        stroke-width: .12px;
      }
    </style>
  </defs>
  <path class="cls-1" d="M18.14,10.41c.08.08.19.12.3.12s.22-.04.3-.12l5.52-5.52c.16-.16.16-.43,0-.6-.16-.16-.43-.16-.6,0l-5.22,5.22-5.22-5.22c-.16-.16-.43-.16-.6,0-.16.16-.16.43,0,.6l5.52,5.52Z"/>
  <path class="cls-1" d="M8.22,12.84c2.99,1.25,6.81,1.94,10.76,1.94,3.44,0,6.76-.52,9.6-1.49.22-.08.34-.32.26-.54-.08-.22-.32-.34-.54-.26-2.76.95-5.98,1.45-9.33,1.45-3.84,0-7.54-.67-10.43-1.87-.22-.09-.46,0-.55.23-.09.22.01.47.23.55Z"/>
  <path class="cls-1" d="M18.68,22.48c-.08-.08-.19-.12-.3-.12s-.22.04-.3.12l-5.52,5.52c-.16.16-.16.43,0,.6.16.16.43.16.6,0l5.22-5.22,5.22,5.22c.16.16.43.16.6,0,.16-.16.16-.43,0-.6l-5.52-5.52Z"/>
  <path class="cls-1" d="M28.6,20.49c-2.99-1.25-6.81-1.94-10.76-1.94-3.44,0-6.76.52-9.6,1.49-.22.08-.34.32-.26.54.08.22.32.34.54.26,2.76-.95,5.98-1.45,9.33-1.45,3.84,0,7.54.67,10.43,1.87.05.02.11.03.16.03.17,0,.32-.1.39-.26.09-.22-.01-.47-.23-.55Z"/>
</svg>