<?xml version="1.0" encoding="UTF-8"?>
<svg id="Layer_1" data-name="Layer 1" xmlns="http://www.w3.org/2000/svg" version="1.1" viewBox="0 0 34.85 32.66">
  <defs>
    <style>
      .cls-1 {
        fill: #000;
        stroke-width: 0px;
      }
    </style>
  </defs>
  <path class="cls-1" d="M5.06,24.25v-.97h25.12v.97H5.06ZM26.81,19.7v-1.18h3.37v1.18h-3.37ZM5.06,19.7v-1.18h3.37v1.18h-3.37ZM10.56,19.68c.16-1.78.9-3.3,2.21-4.52,1.35-1.25,2.98-1.89,4.85-1.89s3.5.64,4.85,1.89c1.31,1.22,2.05,2.74,2.21,4.52h-14.12ZM17.62,14.22c-1.39,0-2.63.4-3.7,1.2-1.05.79-1.78,1.84-2.17,3.12l-.06.2h11.86l-.06-.2c-.38-1.28-1.12-2.33-2.18-3.12-1.07-.79-2.31-1.2-3.69-1.2ZM8.48,10.62l.82-.85,2.35,2.35-.82.85-2.35-2.35ZM23.58,12.13l2.35-2.35.82.85-2.35,2.35-.82-.85ZM17.03,9.91v-3.37h1.18v3.37h-1.18Z"/>
</svg>