<?xml version="1.0" encoding="UTF-8"?>
<svg id="Layer_1" data-name="Layer 1" xmlns="http://www.w3.org/2000/svg" version="1.1" viewBox="0 0 35 32.8">
  <defs>
    <style>
      .cls-1 {
        fill: #000;
        stroke-width: 0px;
      }
    </style>
  </defs>
  <path class="cls-1" d="M20.7,17.77l-.29-.63-.66.3.17.4c.15.33.27.66.34.99.08.34.11.69.11,1.06,0,.43-.06.85-.18,1.25-.12.39-.27.77-.44,1.13-.21.41-.37.84-.48,1.27-.11.43-.17.86-.17,1.29,0,.35.04.7.11,1.05.07.35.18.7.32,1.04l.32.67.69-.3-.23-.5c-.13-.3-.23-.62-.31-.96-.08-.34-.11-.67-.11-1,0-.44.07-.87.2-1.28.13-.41.28-.81.45-1.19.19-.39.34-.8.45-1.21.11-.41.17-.83.17-1.26,0-.37-.04-.73-.11-1.08-.07-.35-.19-.7-.35-1.04Z"/>
  <path class="cls-1" d="M24.5,17.77l-.29-.63-.66.3.17.4c.15.33.27.66.34.99.08.34.11.69.11,1.06,0,.43-.06.85-.18,1.25-.12.39-.27.77-.44,1.13-.21.41-.37.84-.48,1.27-.11.43-.17.86-.17,1.29,0,.35.04.7.11,1.05.07.35.18.7.32,1.04l.32.67.69-.3-.23-.5c-.13-.3-.23-.62-.31-.96-.08-.34-.11-.67-.11-1,0-.43.07-.87.2-1.29.13-.42.29-.82.48-1.21.18-.39.33-.8.43-1.21.1-.41.15-.82.15-1.23,0-.37-.04-.73-.12-1.09-.08-.36-.2-.7-.34-1.03Z"/>
  <path class="cls-1" d="M28.67,18.8c-.06-.35-.17-.7-.33-1.02l-.32-.64-.66.3.17.4c.15.33.27.66.34.99.08.34.11.69.11,1.06,0,.43-.06.85-.18,1.25-.12.39-.27.77-.44,1.13-.21.41-.37.84-.48,1.27-.11.43-.17.86-.17,1.29,0,.35.04.7.11,1.05.07.35.18.7.32,1.04l.32.67.69-.3-.23-.5c-.13-.3-.23-.62-.31-.94-.08-.33-.11-.67-.11-1.01,0-.46.07-.9.2-1.31.13-.41.29-.82.48-1.22.18-.37.33-.76.43-1.16.1-.4.15-.82.15-1.25,0-.37-.03-.74-.09-1.1Z"/>
  <path class="cls-1" d="M23.81,14.58h.94l-.04-.11c-.55-1.52-1.51-3.16-2.85-4.87-1.44-1.85-3.39-3.85-5.79-5.94l-.05-.05-.05.05c-3.04,2.66-5.34,5.15-6.85,7.4-1.53,2.29-2.31,4.41-2.31,6.3,0,2.68.89,4.95,2.64,6.75,1.75,1.8,3.96,2.72,6.57,2.72h.44s.06,0,.09,0h.08v-.89s-.14.01-.14.01c-.15.01-.31.02-.46.02-2.39,0-4.4-.83-5.98-2.46-1.58-1.63-2.37-3.7-2.37-6.15,0-1.67.71-3.59,2.1-5.71,1.38-2.09,3.42-4.34,6.06-6.69l.19-.16.19.16c2.01,1.78,3.68,3.51,4.96,5.15,1.22,1.56,2.1,3.05,2.63,4.42l.02.05Z"/>
</svg>