<?xml version="1.0" encoding="UTF-8"?>
<svg id="Layer_1" data-name="Layer 1" xmlns="http://www.w3.org/2000/svg" version="1.1" viewBox="0 0 34.61 32.44">
  <defs>
    <style>
      .cls-1 {
        fill: #1a1a1a;
        stroke-width: 0px;
      }
    </style>
  </defs>
  <path class="cls-1" d="M16.49,27.97s-.05,0-.07,0l-2.77-.59c-.17-.04-.28-.19-.28-.36l.07-2c-.25-.12-.5-.24-.75-.38l-1.58,1.23c-.13.1-.32.1-.45-.02l-2.1-1.9c-.13-.11-.15-.3-.06-.45l1.06-1.7c-.16-.23-.31-.46-.46-.7l-1.98.28c-.17.02-.33-.08-.38-.24l-.87-2.7c-.05-.16.02-.34.17-.42l1.77-.94c-.03-.28-.04-.56-.04-.84l-1.85-.75c-.16-.06-.25-.23-.21-.4l.59-2.77c.04-.17.2-.28.36-.28l2,.07c.12-.25.24-.5.38-.75l-1.23-1.58c-.1-.13-.1-.32.02-.45l1.9-2.1c.11-.13.3-.15.45-.06l1.7,1.06c.23-.16.46-.31.7-.46l-.28-1.98c-.02-.17.08-.33.24-.38l2.7-.87c.16-.05.34.02.42.17l.94,1.77c.28-.03.56-.04.84-.04l.75-1.85c.06-.16.23-.25.4-.21l2.77.59c.17.04.28.19.28.36l-.07,2c.25.12.5.24.75.38l1.58-1.23c.13-.1.32-.1.45.02l2.11,1.9c.13.11.15.3.06.45l-1.06,1.7c.16.23.31.46.46.7l1.98-.28c.17-.03.33.08.38.24l.87,2.7c.05.16-.02.34-.17.42l-1.77.94c.03.28.04.56.04.84l1.85.75c.16.06.25.23.21.4l-.59,2.77c-.04.17-.19.29-.36.28l-2-.07c-.12.25-.24.5-.38.75l1.23,1.58c.1.13.1.32-.02.45l-1.9,2.1c-.11.13-.3.15-.45.06l-1.7-1.06c-.23.16-.46.32-.7.46l.28,1.98c.02.17-.08.33-.24.38l-2.7.87c-.16.05-.34-.02-.42-.17l-.94-1.77c-.28.03-.56.04-.84.04l-.75,1.85c-.05.13-.18.22-.32.22ZM14.07,26.75l2.2.47.73-1.8c.05-.13.19-.22.33-.22.4,0,.82-.01,1.23-.06.14-.02.28.06.35.18l.91,1.72,2.14-.69-.27-1.93c-.02-.14.05-.28.18-.36.36-.2.7-.42,1.03-.67.12-.09.27-.09.4-.02l1.65,1.03,1.5-1.67-1.2-1.53c-.09-.11-.1-.27-.02-.4.21-.35.4-.72.56-1.09.06-.13.19-.22.34-.21l1.94.07.47-2.2-1.8-.73c-.13-.05-.22-.19-.22-.33,0-.4-.01-.82-.06-1.23-.02-.14.06-.28.18-.35l1.72-.91-.69-2.14-1.93.27c-.14.02-.28-.05-.35-.18-.2-.36-.42-.7-.67-1.03-.09-.12-.09-.27-.02-.4l1.03-1.65-1.67-1.5-1.53,1.2c-.11.09-.27.1-.4.02-.35-.21-.72-.4-1.09-.56-.13-.06-.22-.19-.21-.34l.07-1.94-2.2-.47-.73,1.8c-.05.13-.19.22-.33.22-.4,0-.82.01-1.23.06-.14.02-.28-.06-.35-.18l-.91-1.72-2.14.69.27,1.93c.02.14-.05.28-.18.36-.36.2-.7.42-1.03.67-.12.09-.27.09-.4.02l-1.65-1.03-1.5,1.67,1.2,1.53c.09.11.1.27.02.4-.21.35-.4.72-.56,1.09-.06.13-.19.22-.33.21l-1.94-.07-.47,2.2,1.8.73c.13.05.22.19.22.33,0,.4.01.82.06,1.23.02.14-.06.28-.18.35l-1.72.91.69,2.14,1.93-.27c.14-.02.28.05.36.18.2.36.42.7.67,1.03.09.12.09.27.02.4l-1.03,1.65,1.67,1.5,1.53-1.2c.11-.09.27-.1.4-.02.35.21.72.4,1.09.56.13.06.22.19.21.34l-.07,1.94Z"/>
  <path class="cls-1" d="M17.49,22.27c-.43,0-.85-.04-1.28-.14-1.59-.34-2.95-1.28-3.84-2.64-.89-1.36-1.19-2.99-.85-4.58.34-1.59,1.28-2.95,2.64-3.84,1.36-.89,2.99-1.19,4.58-.85,1.59.34,2.95,1.28,3.84,2.64.89,1.36,1.19,2.99.85,4.58-.34,1.59-1.28,2.95-2.64,3.84-1,.65-2.14.98-3.3.98ZM17.47,10.79c-2.49,0-4.73,1.74-5.27,4.27-.62,2.91,1.24,5.77,4.15,6.39,2.9.62,5.77-1.24,6.39-4.15.62-2.91-1.24-5.77-4.15-6.39-.38-.08-.75-.12-1.12-.12Z"/>
</svg>