<?xml version="1.0" encoding="UTF-8"?>
<svg id="Layer_1" data-name="Layer 1" xmlns="http://www.w3.org/2000/svg" version="1.1" viewBox="0 0 34.85 32.66">
  <defs>
    <style>
      .cls-1 {
        fill: #000;
        stroke-width: 0px;
      }
    </style>
  </defs>
  <path class="cls-1" d="M12.86,28.8c-1.41,0-2.82,0-4.23,0-.48,0-.86-.01-.97-.13-.1-.12-.06-.48.01-.99.47-3.21.93-6.48,1.38-9.64l.47-3.27c.12-.84.25-1.71.36-2.57.04-.33.16-.44.49-.44,2.66,0,5.36,0,8.02,0s5.32,0,7.96,0c.33,0,.44.1.49.44.38,2.7.77,5.45,1.14,8.1l.33,2.31c.08.54.15,1.09.23,1.63.18,1.27.37,2.58.54,3.86.03.23.05.49-.02.58-.08.09-.34.11-.59.11-1.39,0-2.85,0-4.76,0-.89,0-5.53,0-5.53,0h0s-5.33,0-5.33,0ZM11.62,12.51c-.95,0-1.02.07-1.16,1v.05c-.36,2.49-.72,5.02-1.07,7.46-.14.98-.28,1.96-.42,2.94-.13.89-.58,4.07-.58,4.07h19.87l.02-.15s0-.05,0-.06c0-.04.01-.07,0-.11-.16-1.13-.32-2.26-.49-3.39-.52-3.64-1.07-7.41-1.58-11.12-.08-.59-.35-.7-.81-.7h-.01c-2.79,0-5.58.01-7.7.01-1.07,0-6.08,0-6.08,0Z"/>
  <path class="cls-1" d="M18.26,10.23c-1.96,0-3.89-.36-5.73-1.08-1.59-.62-2.8-1.49-3.7-2.67-.52-.68-.87-1.45-1.05-2.3-.09-.41-.06-.69.08-.86.14-.17.41-.26.82-.26,1.44,0,2.88,0,4.32,0h7.74c2.41,0,4.81,0,7.22,0,.17,0,.31,0,.44.02.49.07.67.3.6.78-.16,1.16-.68,2.22-1.54,3.12-1.22,1.3-2.84,2.18-4.94,2.7-1.44.36-2.87.54-4.25.54ZM8.56,4.01s0,.05,0,.08c0,.05,0,.1.02.15.02.1.06.22.1.34.47,1.34,1.4,2.41,2.82,3.26,1.62.96,3.54,1.48,5.87,1.6.36.02.72.03,1.07.03,2.37,0,4.39-.44,6.2-1.34,1.57-.78,2.63-1.82,3.23-3.16.09-.2.15-.4.22-.61.03-.1.06-.2.1-.3l.08-.23H8.54l.02.19Z"/>
  <path class="cls-1" d="M18.36,26.11c-1.56,0-3.02-.6-4.12-1.7-1.09-1.1-1.69-2.56-1.69-4.13,0-1.56.61-3.01,1.7-4.1,1.09-1.09,2.55-1.69,4.12-1.69h.03c1.55,0,3,.61,4.09,1.71,1.09,1.1,1.68,2.56,1.68,4.11,0,1.55-.61,3.01-1.7,4.1-1.09,1.09-2.55,1.69-4.1,1.69h0ZM18.45,15.25c-2.87,0-5.03,2.08-5.15,4.95-.05,1.26.44,2.54,1.34,3.52.91.99,2.16,1.58,3.44,1.63.07,0,.15,0,.22,0,2.82,0,5.02-2.12,5.12-4.93.1-2.64-2.11-5.05-4.72-5.16-.09,0-.17,0-.26,0Z"/>
  <path class="cls-1" d="M15.38,23.27c.19-.29.38-.58.58-.87.57-.87,1.16-1.76,1.77-2.62.18-.24.41-.38.67-.38.21,0,.42.09.59.26.17.17.26.41.24.64-.02.24-.15.46-.38.63-.85.61-1.74,1.2-2.6,1.77-.29.19-.59.39-.88.58Z"/>
</svg>