<?xml version="1.0" encoding="UTF-8"?>
<svg id="Layer_1" data-name="Layer 1" xmlns="http://www.w3.org/2000/svg" version="1.1" viewBox="0 0 35.15 32.95">
  <defs>
    <style>
      .cls-1 {
        stroke-width: 0px;
      }

      .cls-1, .cls-2 {
        fill: #000;
      }

      .cls-2 {
        stroke: #000;
        stroke-miterlimit: 10;
        stroke-width: .25px;
      }
    </style>
  </defs>
  <path class="cls-2" d="M28.37,18.59c0-.9-.18-1.85-.53-2.84,0,0-.06-.18-.07-.21-.06-.16-.13-.32-.2-.49-.37-.87-.86-1.77-1.48-2.69-1.5-2.24-3.8-4.71-6.82-7.36-.75.66-1.45,1.3-2.11,1.94-.01.01-.03.03-.04.04-.95.92-1.81,1.82-2.57,2.68-.08.09-.15.18-.23.27-.14.17-.28.33-.41.49-.11.14-.23.28-.33.41-.02.03-.04.05-.06.08-.05.06-.09.12-.14.18-.33.43-.65.86-.92,1.27-.09.14-.17.27-.26.4-.01.02-.02.03-.03.05-.3.48-.58.96-.81,1.42-.09.18-.18.36-.26.54-.02.04-.04.08-.05.12-.13.29-.34.85-.34.85-.35,1-.54,1.96-.54,2.86,0,2.65.88,4.89,2.61,6.68,1.61,1.66,3.62,2.55,5.97,2.66h0s.06.02.08.02h.26c.06,0,.11,0,.17,0h.44s.06,0,.08,0v-.03c2.35-.12,4.36-1,5.97-2.66,1.73-1.78,2.61-4.03,2.61-6.68ZM19.26,27.24c-.16,0-.31,0-.47-.02-.02,0-.04,0-.06,0h0c-2.17-.11-4.02-.92-5.49-2.45-1.58-1.64-2.39-3.72-2.39-6.18,0-.93.22-1.94.65-3.01.1-.24.21-.49.33-.74.04-.09.09-.18.13-.28.16-.31.32-.62.51-.93.04-.08.1-.15.14-.23.15-.24.31-.49.48-.74.09-.14.19-.28.29-.42.13-.19.27-.38.42-.56,1.32-1.75,3.06-3.59,5.22-5.5l.24-.21.24.21c1.48,1.31,2.78,2.6,3.87,3.84.03.03.06.06.08.09.17.19.33.39.49.58,0,0,.01.02.02.02.17.2.33.4.48.6,1.22,1.56,2.1,3.05,2.63,4.42h0c.39,1.01.59,1.96.59,2.84,0,2.46-.8,4.54-2.39,6.18-1.59,1.64-3.61,2.48-6.01,2.48Z"/>
  <path class="cls-1" d="M20.13,24.61v.82c-.05,0-.1,0-.16,0-1.87,0-3.65-.71-5.01-2.01-1.41-1.34-2.21-3.15-2.25-5.09,0-.06,0-.11.03-.16h.76s.03.09.03.14c.04,1.72.75,3.32,2,4.51,1.25,1.19,2.87,1.82,4.6,1.78Z"/>
  <path class="cls-1" d="M20.13,22.2v.82c-2.54-.16-4.59-2.25-4.68-4.84h.83c.08,2.13,1.77,3.85,3.85,4.02Z"/>
</svg>