<?xml version="1.0" encoding="UTF-8"?>
<svg id="Layer_1" data-name="Layer 1" xmlns="http://www.w3.org/2000/svg" version="1.1" viewBox="0 0 34.93 32.74">
  <defs>
    <style>
      .cls-1 {
        fill: #000;
        stroke-width: 0px;
      }
    </style>
  </defs>
  <path class="cls-1" d="M20.67,14.48c-.15-.19-.33-.36-.52-.51-.31-.24-.65-.43-1.03-.55-.24-.08-.5-.14-.76-.16-.1,0-.2-.01-.31-.01-.76,0-1.46.25-2.03.68-.24.18-.45.4-.64.64-.24.31-.43.66-.55,1.03-.08.23-.13.48-.15.72,0,.1-.01.2-.01.31,0,.81.29,1.57.77,2.15.17.2.36.38.56.53.3.24.64.41,1.02.53.22.08.46.13.71.15.1,0,.2.01.31.01.82,0,1.57-.29,2.15-.77.18-.15.35-.32.5-.51.26-.32.45-.7.58-1.1.07-.22.11-.45.13-.68,0-.1.01-.2.01-.3,0-.81-.29-1.55-.76-2.14ZM19.9,18.45c-.5.5-1.11.75-1.84.75s-1.34-.25-1.83-.75c-.5-.49-.75-1.11-.75-1.83s.25-1.34.75-1.84c.49-.5,1.11-.75,1.83-.75s1.34.25,1.84.75.75,1.11.75,1.84-.25,1.34-.75,1.83Z"/>
  <path class="cls-1" d="M28.96,14.06c-.73-1.24-1.81-1.84-3.28-1.84-.33,0-.63.03-.91.08-.3.06-.62.15-.94.25l-3.68,1.42-.2.08-.18-.23c-.06-.07-.09-.09-.09-.1l-.56-.22v-.08s.03-.23.03-.23c.1-.75.32-1.47.67-2.14.36-.68.85-1.24,1.46-1.65.4-.27.69-.61.88-1.04.2-.44.3-.89.3-1.34,0-.64-.22-1.2-.67-1.71-.43-.5-1.07-.74-1.95-.74-1.91,0-3.44.44-4.56,1.31-1.1.86-1.64,1.88-1.64,3.13,0,.3.03.59.1.89.08.31.17.64.27.96l1.36,3.7.05.14-.18.18c-.06.06-.1.11-.13.16-.03.06-.05.13-.06.2l-.08.38-.15-.02-.23-.04c-.88-.14-1.65-.4-2.28-.78-.63-.38-1.13-.85-1.5-1.38-.27-.4-.61-.69-1.03-.88-.43-.2-.87-.29-1.32-.29-.66,0-1.23.22-1.75.66-.5.43-.74,1.07-.74,1.95,0,2.05.46,3.62,1.36,4.65.89,1.03,1.89,1.54,3.04,1.54.32,0,.63-.03.92-.1.31-.08.64-.17.97-.27l3.72-1.35.13-.05.17.14c.1.08.17.14.24.17,0,0,.03.03.12.04l.38.08-.03.15-.04.24c-.19.94-.46,1.72-.81,2.31-.36.59-.81,1.08-1.35,1.45-.41.27-.69.61-.88,1.03-.2.43-.3.87-.3,1.29,0,.68.22,1.26.66,1.78.43.5,1.08.74,1.96.74,2.07,0,3.65-.48,4.68-1.4,1.03-.93,1.52-1.96,1.51-3.17,0-.27-.03-.55-.1-.81-.08-.29-.17-.59-.27-.9l-1.38-3.68-.06-.17.18-.18c.06-.06.11-.13.15-.19.03-.06.06-.13.08-.2l.08-.39.16.03.24.05c.94.21,1.71.49,2.3.84.6.36,1.09.81,1.45,1.35.27.41.59.69,1,.89.41.2.82.29,1.25.29.66,0,1.25-.22,1.8-.67.52-.43.78-1.07.78-1.95,0-1.59-.39-3.05-1.15-4.35ZM14.65,10.44c-.08-.19-.14-.41-.2-.64-.06-.24-.1-.52-.1-.8.05-1.47.76-2.48,2.12-3.01,1.24-.48,2.38-.72,3.37-.72.64,0,1.13.17,1.45.52.31.34.47.76.47,1.26,0,.37-.08.71-.22,1-.15.31-.37.55-.65.75-.63.43-1.16,1.01-1.58,1.73-.43.73-.73,1.56-.9,2.45l-.05.28h0s-.28.04-.28.04c-.29.04-.6.1-.92.19-.31.08-.6.19-.87.31l-.27.13-.12.06-1.26-3.54ZM11.85,20.05c-.61.19-1.08.28-1.44.28-1.23,0-2.17-.59-2.81-1.75-.59-1.08-.89-2.34-.89-3.75,0-.64.15-1.12.45-1.43.31-.32.75-.49,1.33-.49.29,0,.61.08.94.22.34.15.61.37.81.66.43.63,1.01,1.16,1.73,1.58.73.43,1.55.73,2.45.9l.28.05h.05v.34c0,.27.03.55.11.84.08.28.21.57.38.84l.27.42-.06.02-3.61,1.28ZM21.48,22.83c.07.22.13.42.18.59.07.21.1.46.1.75,0,1.4-.64,2.4-1.9,2.99-1.16.54-2.37.81-3.59.81-.66,0-1.15-.2-1.45-.58-.28-.35-.44-.75-.47-1.21,0-.29.08-.62.24-.96.16-.35.38-.62.63-.79.64-.43,1.17-1.01,1.59-1.73.43-.73.73-1.55.89-2.45l.05-.28v-.02s.31-.02.31-.02c.26-.02.55-.08.85-.15.3-.08.59-.2.87-.36l.41-.23v.03s1.29,3.61,1.29,3.61ZM19.9,18.45c-.5.5-1.11.75-1.84.75s-1.34-.25-1.83-.75c-.5-.49-.75-1.11-.75-1.83s.25-1.34.75-1.84c.49-.5,1.11-.75,1.83-.75s1.34.25,1.84.75.75,1.11.75,1.84-.25,1.34-.75,1.83ZM28.81,19.91c-.36.27-.8.41-1.28.41-.31,0-.61-.08-.93-.24-.31-.16-.55-.37-.72-.62-.43-.64-1.01-1.17-1.73-1.59-.73-.43-1.56-.73-2.45-.89l-.28-.06h-.05v-.34c0-.23-.05-.52-.15-.87-.1-.35-.21-.63-.33-.82l-.24-.41h.02s3.57-1.32,3.57-1.32c.2-.07.41-.13.64-.18.24-.05.5-.08.76-.08h.01c1.52.05,2.54.76,3.05,2.11.47,1.23.71,2.37.71,3.38,0,.71-.2,1.22-.61,1.51Z"/>
</svg>