<?xml version="1.0" standalone="no"?>
<!DOCTYPE svg PUBLIC "-//W3C//DTD SVG 20010904//EN"
 "http://www.w3.org/TR/2001/REC-SVG-20010904/DTD/svg10.dtd">
<svg version="1.0" xmlns="http://www.w3.org/2000/svg"
 width="1024.000000pt" height="1024.000000pt" viewBox="0 0 1024.000000 1024.000000"
 preserveAspectRatio="xMidYMid meet">

<g transform="translate(0.000000,1024.000000) scale(0.100000,-0.100000)"
fill="#000000" stroke="none">
<path d="M0 5120 l0 -5120 5120 0 5120 0 0 5120 0 5120 -5120 0 -5120 0 0
-5120z m6840 2735 c16 -8 34 -24 40 -34 6 -13 10 -177 10 -461 l0 -442 -29
-29 c-20 -20 -39 -29 -61 -29 -22 0 -41 9 -61 29 l-29 29 0 444 c0 479 0 476
54 498 31 13 44 12 76 -5z m-250 -380 c0 -102 -2 -115 -17 -115 -39 0 -195
-55 -283 -101 -114 -59 -190 -114 -289 -211 -135 -133 -239 -309 -296 -500
l-28 -98 -114 0 c-131 0 -123 -9 -93 111 47 184 116 333 219 479 74 103 212
242 313 313 71 51 225 135 308 168 70 28 217 68 253 69 l27 0 0 -115z m550 95
c425 -102 777 -415 955 -850 28 -70 75 -250 68 -262 -2 -5 -56 -8 -119 -8 -98
0 -114 2 -114 16 0 9 -16 64 -36 123 -57 173 -139 305 -273 444 -153 159 -314
254 -526 312 l-80 22 -3 111 c-3 131 -12 125 128 92z m-1508 -356 l37 -6 -43
-57 c-23 -31 -60 -82 -81 -113 l-37 -57 -1487 0 c-1640 2 -1518 6 -1596 -62
-21 -19 -46 -52 -56 -74 -18 -38 -19 -107 -19 -1427 l0 -1388 2635 0 2635 0 0
485 0 484 73 54 c39 30 88 71 106 91 19 20 39 36 43 36 4 0 8 -346 8 -770 l0
-770 -25 -65 c-54 -144 -149 -236 -292 -284 -62 -21 -73 -21 -1245 -21 l-1182
0 46 29 c54 34 87 78 110 146 l17 50 1088 5 1088 5 42 22 c76 41 122 123 123
221 l0 52 -2635 0 -2635 0 0 -62 c0 -39 7 -78 19 -103 23 -51 89 -111 138
-124 26 -7 385 -11 1110 -11 l1072 0 15 -53 c18 -61 72 -129 125 -157 36 -19
28 -19 -1169 -17 l-1205 2 -68 32 c-94 45 -176 125 -224 221 l-38 77 0 1636 0
1635 38 77 c24 48 58 96 89 127 59 58 171 117 244 129 56 10 3080 14 3136 5z
m1558 -204 c90 -45 175 -107 241 -177 55 -57 129 -162 129 -182 0 -8 -77 -51
-93 -51 -3 0 -21 21 -39 48 -90 132 -234 245 -380 301 -26 10 -28 14 -28 70
l0 60 53 -18 c28 -10 81 -33 117 -51z m-608 6 l3 -54 -53 -22 c-123 -51 -282
-184 -357 -297 -15 -24 -30 -43 -32 -43 -8 0 -103 42 -103 46 0 2 16 30 37 61
78 124 257 272 402 334 94 41 98 40 103 -25z m-2354 -351 c21 -9 46 -29 55
-44 16 -28 68 -250 178 -771 27 -129 78 -370 113 -535 36 -165 70 -326 76
-358 7 -32 13 -57 15 -55 4 4 85 246 205 613 78 240 96 284 122 309 27 25 36
28 80 24 31 -3 57 -13 72 -27 12 -12 44 -74 70 -139 68 -169 107 -244 136
-259 16 -9 61 -13 129 -12 l104 2 35 -49 c19 -27 61 -76 94 -110 l60 -61 -39
-5 c-21 -3 -133 -5 -248 -4 -198 1 -212 2 -253 24 -44 24 -90 78 -125 150 -12
23 -23 42 -26 42 -4 0 -78 -217 -166 -482 -88 -264 -166 -494 -174 -510 -14
-29 -75 -68 -107 -68 -33 0 -86 34 -100 64 -7 17 -41 164 -74 326 -33 162 -77
369 -96 460 -20 91 -58 273 -84 405 -63 310 -79 386 -87 410 -3 12 -21 -56
-43 -165 -21 -102 -70 -347 -110 -545 -72 -359 -72 -360 -106 -392 -40 -39
-89 -44 -139 -13 -34 21 -76 111 -233 497 -25 62 -48 111 -50 109 -2 -3 -23
-48 -47 -101 -54 -120 -82 -157 -139 -183 -43 -21 -60 -22 -409 -22 -213 -1
-374 3 -389 9 -88 33 -90 164 -4 205 30 14 74 16 354 14 270 -2 322 0 337 12
24 20 62 104 131 291 65 178 89 209 160 209 46 0 98 -34 114 -74 5 -12 38 -93
75 -181 36 -88 78 -191 93 -229 20 -56 27 -66 33 -50 5 10 25 100 45 199 156
773 210 1014 231 1038 16 18 67 46 85 47 4 0 25 -7 46 -15z m2661 -241 c135
-67 149 -242 28 -338 -31 -25 -49 -31 -102 -34 -56 -4 -70 -1 -110 23 -50 29
-79 68 -96 129 -22 82 32 189 115 227 57 26 103 24 165 -7z m-786 -95 c55 -25
67 -103 23 -147 l-26 -27 -436 0 -436 0 -29 33 c-45 50 -33 119 25 142 33 13
850 12 879 -1z m2282 -1 c27 -12 55 -54 55 -82 0 -31 -24 -66 -55 -81 -28 -13
-94 -15 -445 -15 -369 0 -415 2 -441 17 -56 33 -62 103 -12 149 l26 24 423 0
c307 0 430 -3 449 -12z m-2695 -330 c6 -24 22 -74 37 -113 138 -369 418 -635
778 -740 l80 -23 3 -117 c2 -108 1 -116 -15 -111 -10 3 -48 12 -84 20 -401 91
-778 413 -944 808 -38 90 -95 275 -95 309 0 5 52 9 115 9 l114 0 11 -42z
m2472 36 c17 -16 -62 -264 -122 -384 -200 -398 -572 -679 -998 -754 l-33 -6 3
116 3 117 103 28 c294 83 567 310 708 591 46 91 60 129 89 236 l18 62 112 0
c61 0 114 -3 117 -6z m-1972 -196 c94 -133 197 -218 333 -274 l67 -28 0 -58
c0 -33 -4 -58 -10 -58 -29 0 -178 67 -243 109 -93 61 -199 167 -256 254 -24
37 -42 69 -40 71 10 9 85 45 95 46 5 0 30 -28 54 -62z m1333 37 c26 -11 47
-23 47 -26 0 -3 -19 -35 -42 -70 -95 -142 -251 -268 -408 -328 -44 -17 -84
-31 -89 -31 -14 0 -23 39 -19 80 3 31 8 35 79 65 134 56 254 155 330 271 23
36 45 63 48 62 4 -2 28 -12 54 -23z m-655 -281 l22 -25 0 -443 0 -443 -26 -27
c-37 -37 -86 -35 -125 3 l-29 29 0 437 c0 279 4 443 10 455 28 53 107 60 148
14z m-1784 -1916 c48 -27 86 -92 86 -148 -1 -86 -72 -168 -154 -177 -66 -8
-112 4 -153 40 -133 117 -40 330 136 312 24 -3 62 -15 85 -27z m540 -516 c2
-4 24 -90 47 -192 49 -210 72 -255 153 -305 l49 -30 223 -5 223 -5 30 -29 c61
-59 58 -138 -7 -185 l-30 -21 -1322 0 c-1451 0 -1362 -4 -1395 60 -29 56 -14
125 34 157 22 15 58 19 241 23 241 6 264 12 328 85 56 63 64 91 124 398 l12
57 642 0 c354 0 645 -3 648 -8z"/>
</g>
</svg>
