<?xml version="1.0" encoding="UTF-8"?>
<svg id="Layer_1" data-name="Layer 1" xmlns="http://www.w3.org/2000/svg" version="1.1" viewBox="0 0 34.85 32.66">
  <defs>
    <style>
      .cls-1 {
        fill: #000;
        stroke-width: 0px;
      }
    </style>
  </defs>
  <path class="cls-1" d="M13.06,26.18h9.14l-1.09-4.25h-6.98l-1.07,4.25ZM13.69,20.95h7.86c1.9,0,3.52-.67,4.86-2,1.34-1.33,2.01-2.95,2.01-4.84,0-1.89-.67-3.51-2.01-4.86s-2.96-2.02-4.86-2.02h-7.86c-1.89,0-3.51.67-4.84,2.01s-2,2.96-2,4.85.67,3.52,2,4.85c1.33,1.34,2.95,2.01,4.84,2.01ZM17.62,17.67c-.99,0-1.83-.35-2.52-1.05-.7-.7-1.05-1.54-1.05-2.53s.35-1.82,1.05-2.53c.7-.71,1.54-1.06,2.53-1.06s1.82.35,2.53,1.06c.71.71,1.06,1.55,1.06,2.54s-.35,1.83-1.06,2.52c-.71.7-1.55,1.05-2.54,1.05ZM10.38,12.22c.2,0,.38-.08.55-.23.17-.16.25-.34.25-.56,0-.2-.08-.39-.25-.55-.16-.16-.36-.24-.58-.24-.21,0-.38.08-.54.25-.15.16-.23.36-.23.57,0,.2.08.38.23.54.16.16.34.23.56.23ZM7.82,27.17v-.99h4.22l1.08-4.25c-2.04-.15-3.76-.97-5.16-2.46-1.4-1.5-2.1-3.28-2.1-5.37,0-2.19.76-4.05,2.28-5.58,1.52-1.53,3.37-2.29,5.55-2.29h7.86c2.19,0,4.05.76,5.57,2.29,1.53,1.53,2.29,3.38,2.29,5.57s-.7,3.88-2.11,5.38-3.13,2.31-5.18,2.46l1.08,4.25h4.25v.99H7.82ZM17.62,18.66c1.27,0,2.35-.44,3.24-1.33.89-.89,1.34-1.97,1.34-3.23s-.45-2.35-1.34-3.24-1.97-1.34-3.25-1.34-2.35.45-3.24,1.34c-.88.89-1.33,1.97-1.33,3.25s.44,2.35,1.33,3.24c.89.88,1.97,1.33,3.23,1.33ZM13.06,26.18h9.14-9.14Z"/>
</svg>