<?xml version="1.0" encoding="UTF-8"?>
<svg id="Layer_1" data-name="Layer 1" xmlns="http://www.w3.org/2000/svg" version="1.1" viewBox="0 0 53.24 54.77">
  <defs>
    <style>
      .cls-1 {
        fill: #231f20;
        stroke-width: 0px;
      }
    </style>
  </defs>
  <path class="cls-1" d="M13.25,51.89h26.67c5.11,0,9.26-4.15,9.26-9.26V15.96c0-5.11-4.16-9.26-9.26-9.26H13.25c-5.11,0-9.26,4.15-9.26,9.26v26.67c0,5.11,4.16,9.26,9.26,9.26ZM13.25,7.68h26.67c4.56,0,8.28,3.71,8.28,8.28v22.23s0,0,0,0v4.43c0,4.56-3.71,8.28-8.28,8.28H13.25c-4.56,0-8.28-3.71-8.28-8.28v-22.23s0,0,0,0v-4.43c0-4.56,3.71-8.28,8.28-8.28Z"/>
  <path class="cls-1" d="M38.02,26.21v1.21h-3.75v-1.21h3.75ZM32.3,31.68l2.84,2.86-.83.83-2.85-2.85.85-.85ZM31.66,23.08v2.28h-10.16v-2.28h10.16ZM27.19,34.3v5.02h-1.21v-5.02h1.21ZM20.9,31.68l.85.87-2.85,2.84-.85-.88,2.85-2.83ZM18.9,26.21v1.21h-3.75v-1.21h3.75Z"/>
</svg>