<?xml version="1.0" encoding="UTF-8"?>
<svg id="Layer_1" data-name="Layer 1" xmlns="http://www.w3.org/2000/svg" version="1.1" viewBox="0 0 53.49 55.02">
  <defs>
    <style>
      .cls-1 {
        fill: #231f20;
        stroke-width: 0px;
      }
    </style>
  </defs>
  <path class="cls-1" d="M39.35,4.86H12.68c-5.11,0-9.26,4.15-9.26,9.26v26.67c0,5.11,4.16,9.26,9.26,9.26h26.67c5.11,0,9.26-4.15,9.26-9.26V14.12c0-5.11-4.16-9.26-9.26-9.26ZM39.35,49.06H12.68c-4.56,0-8.28-3.71-8.28-8.28v-22.23s0,0,0,0v-4.43c0-4.56,3.71-8.28,8.28-8.28h26.67c4.56,0,8.28,3.71,8.28,8.28v22.23s0,0,0,0v4.43c0,4.56-3.71,8.28-8.28,8.28Z"/>
  <path class="cls-1" d="M14.91,28.06v-1.21h5.73v1.21h-5.73ZM21.76,24.05l-1.99-2.01.85-.86,2.01,2.01-.86.86ZM25.41,22.08v-5.73h1.21v5.73h-1.21ZM30.28,24.05l-.86-.86,2.01-2.01.86.86-2.01,2.01ZM31.39,28.06v-1.21h5.73v1.21h-5.73ZM26.02,29.78c-.65,0-1.2-.22-1.65-.67-.45-.45-.67-1-.67-1.65s.22-1.2.67-1.65c.45-.45,1-.67,1.65-.67s1.2.22,1.65.67c.45.45.67,1,.67,1.65s-.22,1.2-.67,1.65c-.45.45-1,.67-1.65.67ZM31.52,33.81l-2.1-2.1.86-.86,2.1,2.1-.86.86ZM20.51,33.81l-.86-.86,2.1-2.1.86.86-2.1,2.1ZM25.41,38.56v-5.73h1.21v5.73h-1.21Z"/>
</svg>