<?xml version="1.0" encoding="UTF-8"?>
<svg id="Layer_1" data-name="Layer 1" xmlns="http://www.w3.org/2000/svg" version="1.1" viewBox="0 0 53.21 54.73">
  <defs>
    <style>
      .cls-1 {
        fill: #231f20;
        stroke-width: 0px;
      }
    </style>
  </defs>
  <path class="cls-1" d="M13.71,49.31h26.67c5.11,0,9.26-4.15,9.26-9.26V13.38c0-5.11-4.16-9.26-9.26-9.26H13.71c-5.11,0-9.26,4.15-9.26,9.26v26.67c0,5.11,4.16,9.26,9.26,9.26ZM13.71,5.11h26.67c4.56,0,8.28,3.71,8.28,8.28v22.23s0,0,0,0v4.43c0,4.56-3.71,8.28-8.28,8.28H13.71c-4.56,0-8.28-3.71-8.28-8.28v-22.23s0,0,0,0v-4.43c0-4.56,3.71-8.28,8.28-8.28Z"/>
  <g>
    <g>
      <rect class="cls-1" x="26.39" y="35.52" width="1.21" height="2.68"/>
      <polygon class="cls-1" points="20.07 32.73 20.91 33.58 19.24 35.26 18.38 34.41 20.07 32.73"/>
      <rect class="cls-1" x="33.83" y="32.81" width="1.21" height="2.38" transform="translate(-13.95 34.45) rotate(-45.18)"/>
    </g>
    <g>
      <rect class="cls-1" x="26.39" y="15.23" width="1.21" height="2.68"/>
      <rect class="cls-1" x="19.05" y="18.28" width="1.21" height="2.38" transform="translate(-8.01 19.51) rotate(-44.82)"/>
      <rect class="cls-1" x="33.24" y="18.86" width="2.38" height="1.21" transform="translate(-3.68 30.05) rotate(-45)"/>
    </g>
  </g>
  <g>
    <circle class="cls-1" cx="16.7" cy="26.72" r=".94"/>
    <circle class="cls-1" cx="19.65" cy="26.72" r=".94"/>
    <circle class="cls-1" cx="22.59" cy="26.72" r=".94"/>
    <circle class="cls-1" cx="25.53" cy="26.72" r=".94"/>
    <circle class="cls-1" cx="28.47" cy="26.72" r=".94"/>
    <circle class="cls-1" cx="31.41" cy="26.72" r=".94"/>
    <circle class="cls-1" cx="34.36" cy="26.72" r=".94"/>
    <circle class="cls-1" cx="37.3" cy="26.72" r=".94"/>
  </g>
</svg>