<?xml version="1.0" encoding="UTF-8"?>
<svg id="Layer_1" data-name="Layer 1" xmlns="http://www.w3.org/2000/svg" version="1.1" viewBox="0 0 25.46 26.79">
  <defs>
    <style>
      .cls-1 {
        fill: #000;
        stroke-width: 0px;
      }
    </style>
  </defs>
  <path class="cls-1" d="M15.24,15.43l-.24-.52-.54.24.14.33c.12.27.22.54.28.82.06.28.09.57.09.87,0,.36-.05.7-.15,1.02-.1.32-.22.63-.36.93-.17.34-.3.69-.39,1.04-.09.35-.14.71-.14,1.06,0,.29.03.57.09.86.06.28.15.57.26.85l.26.55.56-.24-.19-.41c-.11-.25-.19-.51-.25-.79-.06-.28-.09-.55-.09-.82,0-.36.05-.71.16-1.05.11-.33.23-.66.37-.98.15-.32.28-.66.37-.99.09-.33.14-.68.14-1.03,0-.3-.03-.6-.09-.88-.06-.28-.16-.57-.29-.86Z"/>
  <path class="cls-1" d="M18.35,15.43l-.24-.52-.54.24.14.33c.12.27.22.54.28.82.06.28.09.57.09.87,0,.36-.05.7-.15,1.02-.1.32-.22.63-.36.93-.17.34-.3.69-.39,1.04-.09.35-.14.71-.14,1.06,0,.29.03.57.09.86.06.28.15.57.26.85l.26.55.56-.24-.19-.41c-.11-.25-.19-.51-.25-.79-.06-.28-.09-.55-.09-.82,0-.36.05-.71.16-1.06.11-.34.24-.67.4-.99.15-.32.27-.65.36-.99.08-.34.13-.67.13-1.01,0-.3-.03-.6-.1-.89-.07-.29-.16-.58-.28-.85Z"/>
  <path class="cls-1" d="M21.77,16.27c-.05-.29-.14-.57-.27-.84l-.26-.52-.54.24.14.33c.12.27.22.54.28.82.06.28.09.57.09.87,0,.36-.05.7-.15,1.02-.1.32-.22.63-.36.93-.17.34-.3.69-.39,1.04-.09.35-.14.71-.14,1.06,0,.29.03.57.09.86.06.28.15.57.26.85l.26.55.56-.24-.19-.41c-.11-.25-.19-.51-.25-.77-.06-.27-.09-.55-.09-.83,0-.37.05-.74.16-1.07.11-.33.24-.67.4-1,.15-.3.27-.62.35-.95.08-.33.13-.67.13-1.02,0-.3-.03-.61-.08-.9Z"/>
  <path class="cls-1" d="M17.79,12.81h.77l-.03-.09c-.45-1.24-1.24-2.59-2.34-3.99-1.18-1.51-2.78-3.15-4.75-4.87l-.04-.04-.04.04c-2.49,2.18-4.38,4.22-5.62,6.07-1.26,1.87-1.89,3.61-1.89,5.17,0,2.19.73,4.06,2.17,5.54,1.44,1.48,3.25,2.23,5.39,2.23h.36s.05,0,.07,0h.06v-.73s-.12,0-.12,0c-.13,0-.25.01-.38.01-1.96,0-3.61-.68-4.9-2.02-1.29-1.34-1.95-3.03-1.95-5.04,0-1.37.58-2.95,1.72-4.68,1.13-1.71,2.8-3.56,4.97-5.48l.15-.13.15.13c1.65,1.46,3.01,2.88,4.06,4.22,1,1.28,1.72,2.5,2.16,3.62l.02.04Z"/>
</svg>