<?xml version="1.0" encoding="UTF-8"?>
<svg id="Layer_1" data-name="Layer 1" xmlns="http://www.w3.org/2000/svg" version="1.1" viewBox="0 0 24.99 26.29">
  <defs>
    <style>
      .cls-1 {
        fill: #000;
        stroke-width: 0px;
      }
    </style>
  </defs>
  <g>
    <path class="cls-1" d="M16.54,13.78c-.12-.11-.27-.18-.44-.29-.14.12-.35.22-.38.35-.03.17.02.42.13.54.41.43.86.82,1.29,1.24.23.22.48.34.74.09.28-.28.14-.54-.1-.76-.41-.39-.82-.78-1.24-1.16Z"/>
    <path class="cls-1" d="M6.63,11.06c.28.23.69,0,.7-.41-.01-.04-.02-.15-.08-.2-.53-.52-1.06-1.04-1.63-1.51-.09-.08-.43,0-.53.11-.1.12-.11.45-.02.55.49.52,1,1.01,1.55,1.47Z"/>
    <path class="cls-1" d="M6.23,15.44c.1.09.35.08.48.02.12-.05.19-.23.28-.34-.05-.13-.06-.24-.12-.29-.52-.51-1.04-1.02-1.6-1.49-.1-.08-.45-.03-.53.08-.1.13-.13.47-.03.58.47.51.99.99,1.52,1.44Z"/>
    <path class="cls-1" d="M11.84,10.81c.28.24.68,0,.69-.43-.02-.04-.03-.16-.1-.22-.51-.49-1.02-1-1.56-1.45-.1-.08-.45-.04-.53.06-.1.14-.14.48-.04.58.48.52,1,1.01,1.55,1.47Z"/>
    <path class="cls-1" d="M9.3,13.57c.41-.43.82-.86,1.22-1.3.1-.1.16-.24.27-.41-.12-.14-.21-.35-.34-.38-.17-.03-.43.01-.55.13-.45.43-.87.89-1.29,1.35-.22.23-.26.48,0,.7.25.22.49.14.7-.09Z"/>
    <path class="cls-1" d="M11.11,16.41c.41-.43.82-.86,1.22-1.29.1-.1.15-.24.26-.42-.11-.14-.2-.35-.33-.37-.17-.04-.42,0-.54.12-.45.43-.87.89-1.29,1.35-.21.23-.25.48-.02.71.25.23.49.14.7-.08Z"/>
    <path class="cls-1" d="M16.98,9.26c-.12.18-.17.32-.26.42-.39.42-.79.84-1.18,1.26-.22.23-.48.36-.74.11-.25-.24-.17-.5.05-.73.42-.44.81-.91,1.26-1.32.13-.11.38-.15.55-.12.13.03.21.24.33.38Z"/>
    <path class="cls-1" d="M6.98,19.97c-.54.46-1.06.95-1.55,1.47-.09.1-.08.43.02.55.09.11.44.19.53.11.57-.48,1.09-1,1.63-1.51.06-.05.06-.16.08-.2,0-.4-.42-.65-.7-.41Z"/>
    <path class="cls-1" d="M12.19,20.22c-.54.46-1.06.95-1.55,1.47-.1.1-.06.44.04.58.08.1.43.15.53.06.54-.46,1.05-.96,1.56-1.45.07-.06.08-.18.1-.22,0-.43-.41-.67-.69-.43Z"/>
    <path class="cls-1" d="M8.76,17.46c-.21-.22-.45-.31-.7-.09-.25.22-.21.47,0,.7.43.45.84.92,1.3,1.35.12.12.38.16.55.13.13-.03.22-.24.34-.38-.11-.17-.17-.31-.27-.41-.4-.44-.81-.86-1.22-1.3Z"/>
    <path class="cls-1" d="M16.01,18.12c-.11-.17-.17-.31-.27-.41-.4-.44-.81-.86-1.22-1.3-.21-.22-.45-.31-.7-.09-.25.22-.21.47,0,.7.43.45.84.92,1.29,1.35.12.12.38.16.55.13.13-.03.22-.24.34-.38Z"/>
    <path class="cls-1" d="M16.1,20.08c-.22-.23-.47-.35-.73-.11-.26.24-.18.5.05.74.42.44.82.9,1.26,1.31.12.11.38.15.55.12.12-.03.21-.24.32-.38-.11-.18-.16-.32-.26-.42-.39-.43-.79-.84-1.19-1.26Z"/>
    <path class="cls-1" d="M20.26,12.45v8.07c0,2-1.62,3.62-3.62,3.62H6.33c-1.99,0-3.62-1.62-3.62-3.62v-10.3c0-2,1.63-3.62,3.62-3.62h8.15v-.79H6.33c-2.43,0-4.41,1.98-4.41,4.41v10.3c0,2.43,1.98,4.41,4.41,4.41h10.3c2.43,0,4.41-1.98,4.41-4.41v-8.07h-.79Z"/>
  </g>
  <polygon class="cls-1" points="24.71 5.8 24.71 6.64 21.1 6.64 21.1 10.22 20.26 10.22 20.26 6.64 16.65 6.64 16.65 5.8 20.26 5.8 20.26 2.18 21.1 2.18 21.1 5.8 24.71 5.8"/>
  <path class="cls-1" d="M16.98,9.26c-.12.18-.17.32-.26.42-.39.42-.79.84-1.18,1.26-.22.23-.48.36-.74.11-.25-.24-.17-.5.05-.73.42-.44.81-.91,1.26-1.32.13-.11.38-.15.55-.12.13.03.21.24.33.38Z"/>
</svg>