<?xml version="1.0" encoding="UTF-8"?>
<svg id="Layer_1" data-name="Layer 1" xmlns="http://www.w3.org/2000/svg" version="1.1" viewBox="0 0 24.79 26.08">
  <defs>
    <style>
      .cls-1 {
        fill: #000;
        stroke-width: 0px;
      }
    </style>
  </defs>
  <path class="cls-1" d="M14.98,6.2c-.24,0-.43-.08-.6-.25-.16-.17-.24-.37-.24-.61s.08-.43.25-.6c.17-.16.36-.24.58-.24.24,0,.44.08.61.25.17.17.25.36.25.58,0,.24-.08.44-.25.61s-.37.25-.61.25ZM14.95,22.34c-.24,0-.43-.08-.6-.25-.16-.17-.24-.36-.24-.58,0-.24.08-.44.24-.61.16-.17.36-.25.6-.25s.44.08.61.25c.17.17.25.37.25.61,0,.24-.08.43-.25.6-.17.16-.37.24-.61.24ZM19.01,9.62c-.24,0-.43-.08-.6-.25-.16-.17-.24-.37-.24-.61,0-.22.08-.41.24-.58.16-.17.36-.25.6-.25s.44.08.61.25c.17.17.25.37.25.61,0,.22-.08.41-.25.58-.17.17-.37.25-.61.25ZM18.98,18.94c-.24,0-.44-.08-.61-.25-.17-.17-.25-.37-.25-.61,0-.22.08-.41.25-.58.17-.17.37-.25.61-.25s.43.08.6.25c.16.17.24.37.24.61s-.08.43-.24.6-.36.24-.6.24ZM20.42,14.26c-.24,0-.43-.08-.6-.24-.16-.16-.24-.36-.24-.6s.08-.43.25-.6c.17-.16.36-.24.58-.24.24,0,.44.08.61.24s.25.36.25.6-.08.43-.25.6-.37.24-.61.24ZM11.84,23.05c-1.33,0-2.59-.25-3.76-.76-1.17-.51-2.19-1.19-3.05-2.05-.86-.86-1.55-1.88-2.05-3.05-.51-1.17-.76-2.43-.76-3.76s.25-2.59.76-3.76c.51-1.17,1.19-2.19,2.05-3.05.86-.86,1.88-1.55,3.05-2.05,1.17-.51,2.43-.76,3.76-.76v1.14c-2.36,0-4.37.82-6.02,2.47s-2.47,3.65-2.47,6.02.82,4.37,2.47,6.02,3.65,2.47,6.02,2.47v1.14ZM11.84,15.02c-.44,0-.81-.16-1.13-.47s-.47-.69-.47-1.13c0-.12.01-.23.04-.34.03-.11.05-.21.09-.29l-1.98-2,.81-.81,2,1.98c.08-.03.3-.08.63-.13.44,0,.81.16,1.13.47s.47.69.47,1.13c0,.44-.16.81-.47,1.13s-.69.47-1.13.47Z"/>
</svg>