<?xml version="1.0" encoding="UTF-8"?>
<svg id="Layer_1" data-name="Layer 1" xmlns="http://www.w3.org/2000/svg" version="1.1" viewBox="0 0 25.39 26.71">
  <defs>
    <style>
      .cls-1 {
        fill: #000;
        stroke: #000;
        stroke-miterlimit: 10;
        stroke-width: .12px;
      }
    </style>
  </defs>
  <g>
    <path class="cls-1" d="M12.71,8.78c-.09,0-.17-.03-.24-.1-.13-.13-.13-.35,0-.48l4.46-4.46c.13-.13.35-.13.48,0,.13.13.13.35,0,.48l-4.46,4.46c-.07.07-.15.1-.24.1Z"/>
    <path class="cls-1" d="M12.71,8.78c-.09,0-.17-.03-.24-.1l-4.46-4.46c-.13-.13-.13-.35,0-.48.13-.13.35-.13.48,0l4.46,4.46c.13.13.13.35,0,.48-.07.07-.15.1-.24.1Z"/>
  </g>
  <path class="cls-1" d="M13.14,12.21c-3.19,0-6.28-.56-8.7-1.57-.17-.07-.26-.27-.18-.45s.27-.26.45-.18c2.33.98,5.33,1.51,8.43,1.51,2.7,0,5.31-.4,7.54-1.17.18-.07.37.03.44.21.06.18-.03.37-.21.43-2.3.79-4.98,1.21-7.76,1.21Z"/>
  <g>
    <path class="cls-1" d="M12.66,18.34c.09,0,.17.03.24.1.13.13.13.35,0,.48l-4.46,4.46c-.13.13-.35.13-.48,0-.13-.13-.13-.35,0-.48l4.46-4.46c.07-.07.15-.1.24-.1Z"/>
    <path class="cls-1" d="M12.66,18.34c.09,0,.17.03.24.1l4.46,4.46c.13.13.13.35,0,.48-.13.13-.35.13-.48,0l-4.46-4.46c-.13-.13-.13-.35,0-.48.07-.07.15-.1.24-.1Z"/>
  </g>
  <path class="cls-1" d="M20.79,17.49s-.09,0-.13-.03c-2.33-.98-5.33-1.51-8.43-1.51-2.7,0-5.31.4-7.54,1.17-.18.06-.37-.03-.44-.21-.06-.18.03-.37.21-.43,2.3-.79,4.98-1.21,7.76-1.21,3.19,0,6.28.56,8.7,1.57.17.07.26.27.18.45-.05.13-.18.21-.32.21Z"/>
</svg>