<?xml version="1.0" encoding="UTF-8"?>
<svg id="Layer_1" data-name="Layer 1" xmlns="http://www.w3.org/2000/svg" version="1.1" viewBox="0 0 25.38 26.7">
  <defs>
    <style>
      .cls-1 {
        fill: #000;
        stroke-width: 0px;
      }
    </style>
  </defs>
  <path class="cls-1" d="M20.73,13.14l-.02-.1h-1.03l.03.15c.04.24.08.47.1.68.03.26.04.52.04.77-.02,2.25-.83,4.21-2.44,5.81-1.6,1.6-3.56,2.42-5.81,2.44-2.22-.01-4.15-.82-5.73-2.4-1.59-1.59-2.4-3.54-2.4-5.79s.81-4.2,2.4-5.79c1.6-1.59,3.55-2.4,5.82-2.4.46,0,.93.04,1.39.13.36.07.71.15,1.05.27l.16.05v-1.1l-.09-.02c-.4-.1-.8-.18-1.18-.24-.45-.06-.9-.1-1.33-.1-.03,0-.05,0-.08,0-.02,0-.03,0-.05,0-1.26,0-2.45.24-3.55.72-1.1.48-2.07,1.13-2.89,1.94-.82.81-1.47,1.77-1.95,2.87-.48,1.1-.72,2.29-.72,3.55,0,.02,0,.04,0,.06,0,.02,0,.04,0,.06,0,1.28.25,2.49.73,3.6.48,1.11,1.14,2.09,1.96,2.91.82.82,1.8,1.48,2.91,1.96,1.11.48,2.32.73,3.6.73s2.49-.25,3.6-.73c1.12-.49,2.1-1.15,2.91-1.96.82-.82,1.48-1.8,1.96-2.91.48-1.11.73-2.33.73-3.6,0-.27-.01-.56-.04-.87-.02-.24-.05-.46-.09-.67Z"/>
  <polygon class="cls-1" points="14.9 18.82 14.99 18.91 15.71 18.19 12.03 14.54 12.03 9.31 11.02 9.31 11.02 9.31 11.02 9.31 11.02 14.79 11.02 14.79 11.02 14.96 14.9 18.82"/>
  <polygon class="cls-1" points="20.74 6.63 20.74 3.23 20.49 3.23 19.71 3.23 19.71 3.23 19.71 6.63 16.31 6.63 16.31 7.66 19.71 7.66 19.71 11.03 20.74 11.03 20.74 7.66 24.14 7.66 24.14 6.63 20.74 6.63"/>
</svg>