<?xml version="1.0" encoding="UTF-8"?>
<svg id="Layer_1" data-name="Layer 1" xmlns="http://www.w3.org/2000/svg" version="1.1" viewBox="0 0 23.9 27.27">
  <defs>
    <style>
      .cls-1 {
        fill: #000;
        stroke-width: 0px;
      }
    </style>
  </defs>
  <path class="cls-1" d="M7.49,24.58c-1.2,0-2.4,0-3.6,0-.41,0-.73,0-.82-.11-.09-.1-.05-.41,0-.84.4-2.73.79-5.51,1.18-8.19l.4-2.78c.1-.72.21-1.46.3-2.19.04-.28.13-.37.41-.37,2.26,0,4.56,0,6.81,0s4.52,0,6.77,0c.28,0,.38.09.42.37.32,2.3.65,4.63.97,6.89l.28,1.96c.07.46.13.93.2,1.39.15,1.08.31,2.19.46,3.28.03.2.05.41-.02.49-.07.08-.29.09-.5.09-1.18,0-2.42,0-4.04,0-.76,0-4.7,0-4.7,0h0s-4.53,0-4.53,0ZM6.43,10.74c-.81,0-.87.06-.98.85v.04c-.3,2.11-.61,4.26-.91,6.34-.12.83-.24,1.66-.36,2.5-.11.75-.49,3.46-.49,3.46h16.89v-.13s.02-.04.02-.05c0-.03,0-.06,0-.09-.14-.96-.28-1.92-.41-2.88-.45-3.1-.91-6.3-1.34-9.45-.07-.5-.3-.59-.69-.59h0c-2.37,0-4.74,0-6.54,0-.91,0-5.17,0-5.17,0Z"/>
  <path class="cls-1" d="M12.08,8.8c-1.66,0-3.3-.31-4.87-.92-1.35-.52-2.38-1.27-3.14-2.27-.44-.58-.74-1.24-.9-1.96-.07-.34-.05-.58.07-.73.12-.15.35-.22.7-.22,1.22,0,2.45,0,3.67,0h6.58c2.04,0,4.09,0,6.13,0,.14,0,.26,0,.37.02.41.06.57.26.51.66-.14.99-.58,1.88-1.31,2.65-1.04,1.1-2.41,1.85-4.2,2.3-1.22.3-2.44.46-3.61.46ZM3.84,3.52s0,.05,0,.07c0,.04,0,.08.02.13.02.09.05.19.08.29.4,1.14,1.19,2.05,2.4,2.77,1.37.81,3.01,1.26,4.99,1.36.31.02.62.02.91.02,2.01,0,3.73-.37,5.27-1.14,1.34-.67,2.23-1.54,2.74-2.69.07-.17.13-.34.19-.52.03-.08.05-.17.09-.26l.07-.19H3.82v.16Z"/>
  <path class="cls-1" d="M12.17,22.29c-1.33,0-2.57-.51-3.5-1.44-.93-.93-1.44-2.18-1.44-3.51,0-1.32.52-2.56,1.45-3.48.93-.92,2.17-1.43,3.5-1.43h.02c1.32,0,2.55.52,3.48,1.45.92.93,1.43,2.17,1.42,3.5,0,1.32-.52,2.56-1.45,3.48-.93.93-2.17,1.44-3.48,1.44h0ZM12.24,13.07c-2.44,0-4.28,1.77-4.38,4.2-.04,1.07.37,2.16,1.14,2.99.77.84,1.84,1.34,2.93,1.39.06,0,.13,0,.19,0,2.39,0,4.27-1.8,4.35-4.19.08-2.24-1.79-4.29-4.01-4.39-.07,0-.15,0-.22,0Z"/>
  <path class="cls-1" d="M9.63,19.88c.16-.25.33-.49.49-.74.48-.74.98-1.5,1.51-2.22.15-.21.35-.32.57-.32.18,0,.36.08.5.22.15.15.22.35.21.54-.02.21-.13.39-.32.53-.72.52-1.48,1.02-2.21,1.5-.25.16-.5.33-.75.49Z"/>
</svg>