<?xml version="1.0" encoding="UTF-8"?>
<svg id="Layer_1" data-name="Layer 1" xmlns="http://www.w3.org/2000/svg" version="1.1" viewBox="0 0 53.36 54.89">
  <defs>
    <style>
      .cls-1 {
        fill: #231f20;
        stroke-width: 0px;
      }
    </style>
  </defs>
  <path class="cls-1" d="M40.38,4.44H13.71c-5.11,0-9.26,4.15-9.26,9.26v26.67c0,5.11,4.16,9.26,9.26,9.26h26.67c5.11,0,9.26-4.15,9.26-9.26V13.71c0-5.11-4.16-9.26-9.26-9.26ZM40.38,48.65H13.71c-4.56,0-8.28-3.71-8.28-8.28v-22.23s0,0,0,0v-4.43c0-4.56,3.71-8.28,8.28-8.28h26.67c4.56,0,8.28,3.71,8.28,8.28v22.23s0,0,0,0v4.43c0,4.56-3.71,8.28-8.28,8.28Z"/>
  <g>
    <rect class="cls-1" x="26.44" y="15.22" width="1.21" height="5.02"/>
    <g>
      <polygon class="cls-1" points="18.12 22.1 15.28 19.25 16.12 18.41 18.97 21.26 18.12 22.1"/>
      <polygon class="cls-1" points="35.95 22.11 35.11 21.24 37.96 18.4 38.8 19.28 35.95 22.11"/>
    </g>
    <g>
      <rect class="cls-1" x="12.89" y="30.36" width="3.75" height="1.21"/>
      <rect class="cls-1" x="37.44" y="30.36" width="3.75" height="1.21"/>
    </g>
    <path class="cls-1" d="M34.87,31.57h-15.65v-5.63c0-1.7,1.38-3.08,3.08-3.08h9.49c1.7,0,3.08,1.38,3.08,3.08v5.63ZM20.35,30.44h13.38v-4.5c0-1.07-.87-1.95-1.95-1.95h-9.49c-1.07,0-1.95.87-1.95,1.95v4.5Z"/>
  </g>
</svg>