<?xml version="1.0" encoding="UTF-8"?>
<svg id="Layer_1" data-name="Layer 1" xmlns="http://www.w3.org/2000/svg" version="1.1" viewBox="0 0 53 54.51">
  <defs>
    <style>
      .cls-1 {
        fill: #231f20;
        stroke-width: 0px;
      }
    </style>
  </defs>
  <path class="cls-1" d="M39.1,5.8H12.44c-5.11,0-9.26,4.15-9.26,9.26v26.67c0,5.11,4.16,9.26,9.26,9.26h26.67c5.11,0,9.26-4.15,9.26-9.26V15.06c0-5.11-4.16-9.26-9.26-9.26ZM39.1,50H12.44c-4.56,0-8.28-3.71-8.28-8.28v-22.23s0,0,0,0v-4.43c0-4.56,3.71-8.28,8.28-8.28h26.67c4.56,0,8.28,3.71,8.28,8.28v22.23s0,0,0,0v4.43c0,4.56-3.71,8.28-8.28,8.28Z"/>
  <g>
    <path class="cls-1" d="M32.83,32.07l2.34,2.32-.96.95-2.32-2.34.94-.93ZM26.44,34.82v3.31h-1.34v-3.31h1.34ZM18.71,32.02l.96.96-2.36,2.32-.94-.94,2.34-2.34Z"/>
    <path class="cls-1" d="M35.25,29.35h-19.04v-4.07l3.15-3.65h12.74l3.15,3.65v4.07ZM17.34,28.22h16.78v-2.52l-2.54-2.94h-11.7l-2.54,2.94v2.52Z"/>
  </g>
</svg>